<svg width="42" height="270" viewBox="0 0 42 270" fill="none" xmlns="http://www.w3.org/2000/svg">
<path fill-rule="evenodd" clip-rule="evenodd" d="M185.281 139.152C185.795 137.775 186.31 136.398 187.157 135.163C186.536 137.086 185.709 138.935 184.69 140.679C184.898 140.175 185.089 139.664 185.281 139.152ZM187.176 135.128L187.64 134.515C186.117 138.964 184.069 143.217 181.54 147.183C177.907 152.772 173.47 157.796 168.372 162.093C163.372 166.291 158.082 170.132 152.541 173.588C144.493 178.694 136.516 183.9 129.045 189.846C122.861 194.702 117.698 200.731 113.853 207.587C112.332 210.315 110.859 213.065 109.515 215.972C109.294 215.651 109.402 215.425 109.524 215.17C109.617 214.976 109.719 214.765 109.689 214.482C109.565 214.761 109.414 215.026 109.272 215.277C108.977 215.798 108.717 216.257 108.8 216.643C108.994 217.286 108.824 217.983 108.354 218.462C107.15 219.402 106.724 220.714 106.299 222.021C106.106 222.616 105.913 223.21 105.647 223.767C105.322 224.448 105.169 225.193 105.015 225.943C104.849 226.747 104.683 227.557 104.302 228.303C103.998 228.897 103.741 229.511 103.484 230.125C102.947 231.405 102.41 232.686 101.451 233.792C100.818 234.523 100.608 235.721 100.435 236.825C100.274 237.846 99.8297 239.064 99.0847 239.691C98.3113 240.343 97.9466 241.186 97.583 242.026L97.5829 242.026C97.3573 242.547 97.1321 243.068 96.8099 243.541C94.7829 246.586 92.5752 249.508 90.1986 252.289C86.7377 256.184 82.8766 259.704 78.6787 262.793C71.7559 267.994 63.8428 269.817 55.3602 269.624C46.8629 269.428 39.6417 266.361 33.9762 259.875L33.8642 259.747C30.9176 256.375 27.9715 253.003 25.3341 249.382C23.6058 247.048 22.1901 244.499 21.123 241.8C20.2572 239.561 18.7974 237.728 17.3391 235.897L17.3376 235.895C17.2222 235.75 17.1068 235.605 16.9917 235.46C12.8499 230.239 9.30302 224.676 7.00855 218.388C4.69274 212.038 3.91235 205.442 4.10394 198.729C4.35817 189.801 6.59991 181.284 9.40917 172.861L9.57493 172.364L9.57495 172.364C13.5626 160.411 17.5543 148.446 19.2918 135.889C20.5334 126.917 21.0162 117.93 19.5603 108.923C18.916 104.937 17.4152 101.262 15.7173 97.6262C14.6425 95.3248 13.5176 93.0468 12.3927 90.7689C10.3852 86.7035 8.37774 82.6383 6.65579 78.4406C4.72597 73.7357 2.93801 68.9727 2.04676 63.9418C0.484499 55.1254 0.0475913 46.2637 1.86815 37.4559C3.81913 28.0172 7.32171 19.2459 14.1008 12.1032C20.5528 5.30557 28.1767 0.835367 37.8032 0.622775C43.0677 0.508146 48.0539 1.94745 52.8305 4.0446C57.1425 5.93757 61.3542 8.04108 65.5664 10.1448L65.5666 10.1449L65.5668 10.145L65.5671 10.1451L65.5673 10.1452L65.5675 10.1453L65.5677 10.1454L65.5679 10.1455L65.5682 10.1456L65.5684 10.1457C69.9236 12.3208 74.2793 14.4962 78.7466 16.4393C79.7735 16.8859 80.7976 17.3396 81.8216 17.7933C86.7353 19.9702 91.6478 22.1465 96.8664 23.5435C104.57 25.6075 112.224 25.1787 119.859 23.127C123.089 22.2614 126.291 21.3015 129.493 20.3416L129.496 20.3404C131.381 19.7753 133.266 19.2102 135.157 18.6643C141.278 16.8973 147.469 15.5044 153.885 15.3739C165.158 15.1446 173.939 19.9425 180.738 28.7005C184.659 33.8238 187.783 39.5089 190.003 45.5633C190.829 47.7545 191.506 49.9878 192.182 52.2145C192.299 52.6029 192.417 52.9911 192.535 53.3789C193.267 55.7695 193.758 58.2267 194.002 60.714C194.102 61.7462 194.317 62.7649 194.532 63.7876L194.532 63.7879L194.532 63.7882C194.731 64.7334 194.931 65.6821 195.042 66.6482C195.906 73.9303 196.283 81.2615 196.17 88.5927C196.088 92.9897 195.689 97.3598 195.257 101.721C194.912 105.209 194.36 108.68 193.666 112.141C193.497 112.985 193.334 113.833 193.171 114.681C192.783 116.701 192.393 118.725 191.916 120.722C191.726 121.512 191.39 122.26 191.051 123.014C190.737 123.71 190.421 124.412 190.218 125.157C189.425 128.255 188.404 131.29 187.164 134.238C187.034 134.53 186.929 134.835 187.176 135.128ZM14.0556 21.5562L13.8613 21.5243C13.6765 21.8901 13.484 22.2528 13.2915 22.6155C12.869 23.4113 12.4466 24.2071 12.1056 25.0363C11.9811 25.3394 11.8558 25.6421 11.7305 25.9448C10.2297 29.57 8.7339 33.1831 8.66857 37.2586C8.66039 37.7799 8.52228 38.3113 8.38094 38.8551C8.20838 39.519 8.03099 40.2015 8.07935 40.9069C8.13942 41.7786 8.01049 42.628 7.88034 43.4855C7.74817 44.3561 7.61476 45.2351 7.67673 46.154C7.86582 48.966 7.97225 51.8102 7.93474 54.6372C7.91799 55.8934 8.12185 57.1093 8.32533 58.3228L8.32537 58.323L8.32541 58.3232C8.42558 58.9207 8.52565 59.5175 8.59925 60.1184C8.85181 61.5471 9.18307 62.9609 9.59151 64.3534C10.197 66.9759 11.0228 69.543 12.0602 72.0272C13.1259 74.5281 14.3003 76.9976 15.5054 79.4447C15.9748 80.3982 16.4607 81.3447 16.9466 82.2912C17.6911 83.7417 18.4358 85.1923 19.1218 86.669C20.4318 89.5427 21.9266 92.3289 23.5969 95.0099C24.0378 95.7062 24.3142 96.4533 24.5907 97.201L24.5908 97.2011C24.8419 97.8801 25.0933 98.5596 25.4683 99.2021C26.208 100.342 26.8094 101.565 27.26 102.846C27.9764 105.187 28.5166 107.579 28.8762 110C30.0193 118.106 29.692 126.203 28.5956 134.278C28.5436 134.662 28.4955 135.047 28.4475 135.432L28.4475 135.432L28.4474 135.432L28.4474 135.433L28.4474 135.433L28.4474 135.433L28.4473 135.433L28.4473 135.433L28.4473 135.433C28.1836 137.546 27.9187 139.669 26.976 141.643C26.5883 142.353 26.348 143.134 26.2693 143.939C26.2109 145.465 25.9143 146.973 25.3902 148.407C24.8019 150.076 24.3387 151.778 23.8752 153.482L23.8752 153.482C23.4971 154.872 23.1189 156.262 22.6723 157.635C21.0637 162.585 19.412 167.518 17.5151 172.359C16.9864 173.709 16.5469 175.087 16.1072 176.465L16.1072 176.465L16.1071 176.465L16.1071 176.465L16.1071 176.465L16.107 176.465L16.107 176.465L16.107 176.465L16.107 176.466L16.1069 176.466C15.5869 178.096 15.0666 179.726 14.3982 181.313C13.8347 182.651 13.5992 184.13 13.3642 185.607C13.2703 186.196 13.1765 186.786 13.062 187.365C11.1628 196.969 11.1684 206.487 14.7223 215.754C14.9297 216.295 14.9214 216.826 14.9132 217.349C14.9037 217.963 14.8942 218.567 15.2337 219.162C18.0647 224.126 20.8269 229.128 23.3783 234.246C25.1334 237.766 27.602 240.777 30.071 243.788C31.374 245.378 32.6771 246.967 33.8755 248.631L33.9354 248.714L33.9892 248.789L33.9899 248.79C34.5847 249.611 34.6166 249.656 34.6134 250.942C34.6132 251.043 34.7205 251.147 34.8238 251.247C34.8624 251.284 34.9003 251.321 34.932 251.357C35.699 252.23 36.4416 253.124 37.1841 254.018C38.7025 255.847 40.2207 257.676 41.9472 259.317C42.2105 259.567 42.4711 259.821 42.7319 260.076C44.0647 261.376 45.4026 262.681 47.1239 263.479C54.2929 266.802 61.4033 266.395 68.3851 262.958C72.3211 261.02 75.7141 258.275 78.9767 255.376C85.6903 249.446 91.0687 242.16 94.7575 233.999C96.2514 230.71 97.6512 227.38 99.0512 224.049C101.143 219.073 103.236 214.095 105.643 209.25C109.504 201.328 114.914 194.261 121.555 188.464C129.629 181.454 138.515 175.575 147.457 169.768C153.588 165.786 159.566 161.592 164.898 156.563C172.397 149.489 177.641 140.976 181.074 131.278C183.157 125.428 184.835 119.442 186.097 113.361C189.526 96.6887 190.53 79.8769 188.604 62.9179C187.725 55.1838 186.074 47.6647 182.673 40.6011C180.379 35.8387 177.779 31.2795 174.095 27.4217C171.933 25.1583 169.524 23.2561 166.449 22.3932C162.681 21.329 158.753 20.9524 154.852 21.2813C147.771 21.8729 141.035 23.9249 134.297 25.9775C133.478 26.2272 132.658 26.4769 131.838 26.7239C124.419 28.958 117.003 31.067 109.077 30.6727C104.55 30.4851 100.073 29.6497 95.7821 28.192C85.2222 24.5297 75.3333 19.3889 65.4487 14.2504L65.448 14.2501L64.2805 13.6432C62.9434 12.9485 61.623 12.2208 60.3027 11.4931L60.3023 11.4929C56.9347 9.63695 53.5673 7.78108 49.9249 6.47372C46.5249 5.2539 43.0596 4.40816 39.4123 4.57955C32.9782 4.96997 26.8857 7.5958 22.1893 12.0025C22.071 12.1396 21.9277 12.253 21.7669 12.3367C20.0175 13.0154 19.0979 14.4781 18.1764 15.9438L18.1759 15.9445C18.0846 16.0898 17.9931 16.2352 17.9009 16.3799C17.8364 16.4808 17.7736 16.5926 17.7098 16.7059C17.5107 17.0599 17.3026 17.4299 17.0081 17.5384C16.2382 17.8223 15.9592 18.4575 15.6749 19.1047C15.4445 19.6294 15.2106 20.162 14.7088 20.5216C14.4362 20.717 14.2705 21.193 14.0906 21.71C13.9454 22.1272 13.791 22.5712 13.5634 22.9159L14.0556 21.5562ZM106.302 210.892C108.45 206.362 111.134 202.107 114.298 198.217C111.068 202.856 108.259 207.774 105.905 212.913C103.858 217.258 102.012 221.689 100.166 226.12C99.2664 228.278 98.3671 230.436 97.4447 232.584C96.5807 234.7 95.5327 236.736 94.3128 238.669C94.1398 237.957 94.4857 237.495 94.8218 237.046C94.9858 236.827 95.1476 236.612 95.2454 236.371C95.8756 234.824 96.5408 233.291 97.2059 231.758C97.8335 230.311 98.461 228.864 99.0591 227.406C101.342 221.843 103.686 216.308 106.302 210.892ZM8.35697 22.8953C11.1273 18.0402 14.566 13.5981 18.5726 9.6989C14.1095 13.1679 10.5959 17.7068 8.35697 22.8953ZM21.7372 134.784C22.957 128.456 23.2245 121.981 22.5308 115.572C22.6218 121.991 22.271 128.391 21.7372 134.784ZM6.21852 205.194C6.64371 210.932 7.58389 216.544 10.5036 221.634C8.45074 216.335 7.01298 210.819 6.21852 205.194ZM172.133 151.049L172.133 151.048C175.263 146.653 178.394 142.258 180.471 137.218C178.476 142.925 175.28 148.137 171.099 152.504C171.439 152.023 171.782 151.542 172.124 151.062L172.133 151.049ZM5.06154 30.1679C5.24111 30.1191 5.37195 30.0897 5.46473 30.0689C5.59708 30.0393 5.65197 30.0269 5.66036 30.0002C6.23597 27.9981 7.02272 26.063 8.00737 24.2273C8.06369 24.1546 8.08757 24.062 8.07337 23.9711C8.05917 23.8803 8.00817 23.7992 7.93235 23.747C7.66742 23.5777 7.4919 23.7667 7.41166 23.9752C6.81416 25.5292 6.22569 27.0869 5.59932 28.745L5.59848 28.7472L5.5974 28.7501C5.42209 29.2141 5.24382 29.686 5.06154 30.1679ZM28.7117 117.568C28.9025 115.107 28.7115 112.63 28.1456 110.227L28.7117 117.568ZM105.294 222.41C106.665 220.39 106.929 219.253 106.064 218.419C106.742 219.415 106.319 220.061 105.876 220.738C105.554 221.231 105.221 221.739 105.294 222.41ZM104.433 226.973L104.575 227.07L102.405 231.945L102.25 231.876L104.433 226.973Z" fill="#9EAD8D"/>
</svg>
