<svg width="270" height="45" viewBox="0 0 270 45" fill="none" xmlns="http://www.w3.org/2000/svg">
<path fill-rule="evenodd" clip-rule="evenodd" d="M141.746 -138.81C140.379 -139.348 139.011 -139.887 137.791 -140.756C139.702 -140.101 141.537 -139.242 143.263 -138.193C142.762 -138.41 142.254 -138.61 141.746 -138.81ZM137.756 -140.775L137.15 -141.25C141.573 -139.649 145.789 -137.527 149.71 -134.93C155.235 -131.2 160.181 -126.676 164.388 -121.504C168.499 -116.431 172.247 -111.075 175.605 -105.475C180.57 -97.3386 185.636 -89.2714 191.451 -81.6979C196.198 -75.4302 202.136 -70.1633 208.924 -66.1991C211.625 -64.6309 214.349 -63.1098 217.232 -61.7148C216.907 -61.4997 216.683 -61.6119 216.43 -61.7385C216.238 -61.835 216.029 -61.9399 215.745 -61.9148C216.022 -61.786 216.284 -61.6311 216.533 -61.4846C217.048 -61.1807 217.503 -60.9128 217.891 -60.9883C218.536 -61.1717 219.23 -60.9889 219.702 -60.5112C220.62 -59.2909 221.925 -58.8417 223.224 -58.3944C223.816 -58.1908 224.406 -57.9875 224.958 -57.7121C225.633 -57.375 226.376 -57.2088 227.123 -57.0414C227.924 -56.8621 228.731 -56.6813 229.47 -56.2875C230.059 -55.9735 230.668 -55.7057 231.277 -55.4376C232.548 -54.8791 233.819 -54.3199 234.908 -53.3419C235.629 -52.6955 236.822 -52.4648 237.923 -52.2724C238.941 -52.0943 240.151 -51.6284 240.766 -50.8725C241.404 -50.0878 242.24 -49.7085 243.074 -49.3303L243.074 -49.3302C243.591 -49.0955 244.107 -48.8613 244.575 -48.5309C247.585 -46.4511 250.467 -44.1927 253.206 -41.7678C257.04 -38.2396 260.493 -34.3176 263.507 -30.0665C268.587 -23.0539 270.272 -15.1102 269.93 -6.63225C269.587 1.8603 266.394 9.02687 259.81 14.5783L259.68 14.6881C256.257 17.5754 252.834 20.4622 249.167 23.0359C246.804 24.7233 244.231 26.0943 241.513 27.1141C239.259 27.9407 237.401 29.3683 235.545 30.7944L235.543 30.7959C235.396 30.9088 235.249 31.0216 235.102 31.1341C229.81 35.1842 224.186 38.6335 217.858 40.8178C211.469 43.0225 204.861 43.6876 198.152 43.3789C189.23 42.9689 180.753 40.5789 172.38 37.623L171.886 37.4486L171.886 37.4486C160.005 33.2529 148.111 29.053 135.587 27.0966C126.638 25.6987 117.661 25.0591 108.629 26.3576C104.633 26.9322 100.932 28.3687 97.2673 30.0029C94.9475 31.0373 92.6502 32.1222 90.353 33.2072C86.2532 35.1435 82.1536 37.0797 77.9265 38.7281C73.1886 40.5755 68.3951 42.2801 63.3494 43.0834C54.5071 44.4916 45.6391 44.7738 36.8644 42.7998C27.4612 40.6843 18.7524 37.0292 11.7291 30.1266C5.04508 23.5569 0.708615 15.8561 0.664062 6.22738C0.641328 0.961672 2.16744 -3.99872 4.34763 -8.73792C6.31556 -13.0162 8.49226 -17.1906 10.6692 -21.3654L10.6693 -21.3657L10.6694 -21.3659L10.6695 -21.3661L10.6696 -21.3663L10.6697 -21.3665L10.6698 -21.3667L10.6699 -21.367L10.67 -21.3672L10.6701 -21.3674C12.9209 -25.684 15.1719 -30.0011 17.1927 -34.4337C17.6572 -35.4527 18.1287 -36.4687 18.6002 -37.4847C20.8625 -42.3597 23.1242 -47.2334 24.6121 -52.4268C26.8103 -60.0932 26.5151 -67.7531 24.597 -75.4236C23.7879 -78.6678 22.884 -81.8858 21.9801 -85.1039L21.979 -85.1077C21.4468 -87.0023 20.9147 -88.8969 20.4019 -90.7969C18.742 -96.9474 17.4574 -103.162 17.4389 -109.579C17.4063 -120.855 22.3567 -129.551 31.232 -136.195C36.423 -140.026 42.1618 -143.05 48.254 -145.165C50.4593 -145.953 52.704 -146.591 54.9423 -147.227C55.3326 -147.338 55.7228 -147.449 56.1126 -147.561C58.5156 -148.25 60.981 -148.698 63.4722 -148.899C64.506 -148.981 65.5282 -149.178 66.5546 -149.375L66.5549 -149.375L66.5552 -149.375C67.5037 -149.558 68.4558 -149.741 69.4236 -149.835C76.7197 -150.572 84.0563 -150.821 91.3845 -150.58C95.7794 -150.421 100.142 -149.946 104.495 -149.438C107.976 -149.032 111.437 -148.42 114.886 -147.666C115.727 -147.482 116.571 -147.304 117.417 -147.126C119.429 -146.703 121.446 -146.278 123.435 -145.765C124.221 -145.563 124.963 -145.213 125.711 -144.861C126.402 -144.535 127.098 -144.207 127.839 -143.991C130.923 -143.144 133.94 -142.07 136.866 -140.779C137.155 -140.644 137.458 -140.533 137.756 -140.775ZM21.1798 30.3367L21.1446 30.5304C21.5071 30.7215 21.8664 30.9204 22.2257 31.1192C23.014 31.5554 23.8023 31.9917 24.6254 32.3471C24.9263 32.4769 25.2268 32.6075 25.5272 32.738C29.1256 34.3019 32.7121 35.8605 36.7858 35.9969C37.3069 36.0142 37.8358 36.1616 38.3771 36.3124C39.0379 36.4965 39.7172 36.6858 40.4233 36.6497C41.296 36.6049 42.143 36.7486 42.998 36.8937C43.8662 37.0411 44.7427 37.1898 45.6625 37.1439C48.4775 37.0039 51.323 36.9471 54.149 37.0339C55.4047 37.0726 56.6239 36.89 57.8408 36.7077L57.841 36.7077L57.8413 36.7077C58.4404 36.6179 59.0389 36.5283 59.6409 36.4652C61.0739 36.2376 62.4933 35.9311 63.8926 35.547C66.5253 34.9874 69.1064 34.2065 71.6084 33.2126C74.1275 32.1907 76.617 31.0596 79.0848 29.8974C80.0464 29.4447 81.0012 28.9754 81.9561 28.5061C83.4193 27.787 84.8827 27.0677 86.3712 26.4076C89.2673 25.148 92.0791 23.702 94.7889 22.0788C95.4928 21.6501 96.2445 21.3868 96.997 21.1233L96.9971 21.1233C97.6803 20.884 98.3641 20.6446 99.0131 20.2808C100.165 19.5612 101.399 18.9811 102.687 18.5529C105.041 17.8776 107.442 17.3792 109.869 17.0619C117.994 16.0605 126.084 16.529 134.138 17.7661C134.521 17.8249 134.905 17.8796 135.29 17.9344L135.29 17.9344L135.29 17.9344L135.29 17.9345L135.29 17.9345L135.29 17.9345L135.29 17.9346L135.29 17.9346L135.291 17.9346C137.399 18.2351 139.517 18.537 141.474 19.514C142.177 19.914 142.954 20.168 143.757 20.2607C145.282 20.3458 146.784 20.6686 148.209 21.2176C149.867 21.835 151.561 22.3278 153.257 22.821L153.257 22.821C154.64 23.2233 156.023 23.6257 157.389 24.0962C162.31 25.7909 167.213 27.5284 172.02 29.5095C173.361 30.0618 174.731 30.5252 176.101 30.9889L176.101 30.989L176.101 30.989L176.101 30.989L176.101 30.9891L176.101 30.9891L176.101 30.9891L176.101 30.9891L176.101 30.9892L176.101 30.9892C177.722 31.5376 179.344 32.0863 180.918 32.7823C182.247 33.3691 183.721 33.6303 185.193 33.8911C185.781 33.9952 186.369 34.0992 186.946 34.2239C196.515 36.2905 206.032 36.4509 215.36 33.0593C215.904 32.8614 216.435 32.8789 216.958 32.8962C217.572 32.9165 218.175 32.9365 218.776 32.6075C223.789 29.8636 228.838 27.189 234 24.7274C237.55 23.034 240.604 20.6183 243.658 18.2022C245.269 16.9271 246.881 15.652 248.566 14.4828L248.65 14.4244L248.726 14.3718L248.727 14.3711C249.559 13.7908 249.603 13.7597 250.889 13.7854C250.99 13.7873 251.096 13.6818 251.198 13.5803C251.236 13.5424 251.273 13.5051 251.31 13.4741C252.196 12.7224 253.103 11.9955 254.01 11.2687C255.865 9.78247 257.72 8.29643 259.391 6.59882C259.646 6.33997 259.905 6.08382 260.164 5.8275C261.487 4.51757 262.815 3.20264 263.643 1.49556C267.09 -5.61438 266.808 -12.7307 263.493 -19.7715C261.624 -23.7408 258.939 -27.1811 256.097 -30.4938C250.285 -37.3099 243.094 -42.8147 234.999 -46.6453C231.736 -48.1964 228.431 -49.6541 225.125 -51.112C220.186 -53.2906 215.246 -55.4694 210.444 -57.9606C202.59 -61.9593 195.618 -67.4922 189.938 -74.233C183.07 -82.4285 177.347 -91.4158 171.697 -100.458C167.823 -106.657 163.734 -112.707 158.799 -118.126C151.856 -125.748 143.436 -131.139 133.8 -134.741C127.987 -136.926 122.031 -138.709 115.973 -140.076C99.3632 -143.795 82.5716 -145.093 65.5816 -143.463C57.8333 -142.719 50.2865 -141.199 43.1646 -137.923C38.363 -135.712 33.759 -133.192 29.8375 -129.576C27.5368 -127.454 25.5928 -125.079 24.6763 -122.019C23.5466 -118.27 23.1014 -114.349 23.3623 -110.443C23.8301 -103.353 25.7643 -96.5824 27.699 -89.8097C27.9343 -88.9858 28.1697 -88.162 28.4024 -87.3375C30.5066 -79.8808 32.4859 -72.4288 31.9533 -64.5113C31.6868 -59.9883 30.7733 -55.5263 29.241 -51.2615C25.3949 -40.7672 20.0823 -30.9695 14.7721 -21.1761L14.7717 -21.1754L14.1446 -20.0186C13.4267 -18.694 12.6761 -17.3865 11.9254 -16.079L11.9252 -16.0787C10.0108 -12.7439 8.0964 -9.40941 6.72567 -5.79038C5.4467 -2.41222 4.54061 1.03779 4.64831 4.68756C4.92639 11.1274 7.44548 17.2649 11.7695 22.0375C11.9046 22.1582 12.0155 22.3034 12.0963 22.4656C12.7444 24.2266 14.1909 25.1716 15.6402 26.1186L15.6409 26.119C15.7846 26.2129 15.9284 26.3069 16.0714 26.4016C16.1712 26.4678 16.2819 26.5326 16.3941 26.5984C16.7445 26.8036 17.1108 27.0182 17.2142 27.3145C17.4846 28.0893 18.1149 28.3793 18.757 28.6748C19.2776 28.9144 19.806 29.1575 20.1568 29.6655C20.3474 29.9415 20.8205 30.1154 21.3342 30.3043C21.7489 30.4568 22.1901 30.619 22.5308 30.8525L21.1798 30.3367ZM212.097 -58.5915C207.605 -60.818 203.397 -63.5764 199.563 -66.8074C204.145 -63.4968 209.013 -60.6025 214.11 -58.1589C218.419 -56.0371 222.817 -54.1137 227.215 -52.1902C229.357 -51.2534 231.499 -50.3166 233.631 -49.3568C235.731 -48.456 237.749 -47.3726 239.66 -46.1192C238.945 -45.9587 238.489 -46.3125 238.047 -46.6564C237.831 -46.8242 237.618 -46.9897 237.379 -47.0917C235.843 -47.7489 234.322 -48.4407 232.801 -49.1324C231.365 -49.7852 229.929 -50.4379 228.482 -51.0613C222.96 -53.4407 217.466 -55.8816 212.097 -58.5915ZM22.4192 36.0578C17.6133 33.2032 13.2319 29.6875 9.40319 25.6134C12.7938 30.1364 17.2706 33.7287 22.4192 36.0578ZM134.524 24.6324C128.219 23.3022 121.749 22.9218 115.329 23.5036C121.749 23.5246 128.141 23.987 134.524 24.6324ZM204.652 41.3775C210.398 41.0525 216.025 40.2104 221.165 37.38C215.831 39.34 210.291 40.6813 204.652 41.3775ZM153.411 -125.457L153.411 -125.457C149.071 -128.663 144.732 -131.87 139.729 -134.035C145.399 -131.94 150.555 -128.654 154.849 -124.397C154.373 -124.746 153.899 -125.097 153.424 -125.448L153.411 -125.457ZM29.6333 39.4797C29.5876 39.2993 29.5605 39.1679 29.5414 39.0748C29.514 38.942 29.5026 38.8869 29.476 38.878C27.4843 38.2675 25.5632 37.4471 23.745 36.4306C23.6733 36.373 23.5811 36.3475 23.49 36.3601C23.3989 36.3727 23.317 36.4223 23.2634 36.4972C23.0895 36.7592 23.2755 36.938 23.4825 37.0218C25.0259 37.6464 26.5731 38.2619 28.2199 38.9171L28.2221 38.918L28.225 38.9191C28.6859 39.1025 29.1546 39.289 29.6333 39.4797ZM117.433 17.3584C114.975 17.1248 112.496 17.2725 110.083 17.7963L117.433 17.3584ZM223.596 -57.3822C221.599 -58.7881 220.468 -59.0724 219.619 -58.222C220.626 -58.8822 221.265 -58.4481 221.934 -57.9935C222.421 -57.6627 222.923 -57.3211 223.596 -57.3822ZM228.142 -56.4418L228.242 -56.5827L233.079 -54.3274L233.007 -54.1734L228.142 -56.4418Z" fill="#9EAD8D"/>
</svg>
