<svg width="270" height="196" viewBox="0 0 270 196" fill="none" xmlns="http://www.w3.org/2000/svg">
<path fill-rule="evenodd" clip-rule="evenodd" d="M141.746 12.4712C140.379 11.9328 139.011 11.3942 137.791 10.5254C139.702 11.1798 141.537 12.0391 143.263 13.0885C142.762 12.8715 142.254 12.6713 141.746 12.4712ZM137.756 10.5059L137.15 10.0309C141.573 11.6322 145.789 13.7539 149.71 16.3515C155.235 20.0813 160.181 24.605 164.388 29.7773C168.499 34.8499 172.247 40.2062 175.605 45.8065C180.57 53.9426 185.636 62.0098 191.451 69.5833C196.199 75.851 202.136 81.1179 208.924 85.0821C211.625 86.6503 214.349 88.1714 217.232 89.5664C216.907 89.7815 216.683 89.6693 216.43 89.5426C216.238 89.4462 216.029 89.3413 215.745 89.3664C216.022 89.4952 216.284 89.6501 216.533 89.7965C217.048 90.1005 217.503 90.3684 217.891 90.2929C218.536 90.1095 219.23 90.2923 219.702 90.77C220.62 91.9903 221.925 92.4395 223.224 92.8868C223.816 93.0904 224.406 93.2937 224.958 93.5691C225.633 93.9062 226.376 94.0723 227.123 94.2398C227.924 94.4191 228.731 94.5999 229.47 94.9937C230.059 95.3077 230.668 95.5755 231.277 95.8436C232.548 96.4021 233.819 96.9612 234.908 97.9393C235.629 98.5856 236.822 98.8164 237.923 99.0088C238.942 99.1869 240.151 99.6528 240.766 100.409C241.404 101.193 242.24 101.573 243.074 101.951L243.074 101.951C243.591 102.186 244.107 102.42 244.575 102.75C247.585 104.83 250.467 107.089 253.207 109.513C257.04 113.042 260.493 116.964 263.507 121.215C268.587 128.227 270.272 136.171 269.93 144.649C269.587 153.141 266.394 160.308 259.81 165.859L259.68 165.969C256.257 168.857 252.834 171.743 249.167 174.317C246.804 176.004 244.231 177.376 241.513 178.395C239.259 179.222 237.401 180.649 235.545 182.076L235.543 182.077C235.396 182.19 235.249 182.303 235.102 182.415C229.81 186.465 224.186 189.915 217.858 192.099C211.469 194.304 204.861 194.969 198.152 194.66C189.23 194.25 180.753 191.86 172.38 188.904L171.886 188.73L171.886 188.73C160.005 184.534 148.111 180.334 135.587 178.378C126.638 176.98 117.661 176.34 108.629 177.639C104.633 178.213 100.932 179.65 97.2673 181.284C94.9475 182.318 92.6502 183.403 90.353 184.488C86.2532 186.425 82.1536 188.361 77.9265 190.009C73.1886 191.857 68.3951 193.561 63.3494 194.365C54.5071 195.773 45.6391 196.055 36.8644 194.081C27.4613 191.966 18.7524 188.31 11.7291 181.408C5.0451 174.838 0.708631 167.137 0.664077 157.509C0.641343 152.243 2.16745 147.282 4.34765 142.543C6.31558 138.265 8.49227 134.091 10.6692 129.916L10.6693 129.916L10.6694 129.915L10.6695 129.915L10.6696 129.915L10.6697 129.915L10.6698 129.914L10.6699 129.914L10.67 129.914L10.6701 129.914C12.9209 125.597 15.1719 121.28 17.1927 116.847C17.6573 115.828 18.1287 114.812 18.6002 113.796C20.8625 108.922 23.1242 104.048 24.6121 98.8544C26.8103 91.188 26.5151 83.5281 24.597 75.8576C23.7879 72.6134 22.884 69.3953 21.9801 66.1772L21.979 66.1735C21.4468 64.2789 20.9147 62.3843 20.4019 60.4843C18.742 54.3338 17.4574 48.119 17.4389 41.7022C17.4063 30.4262 22.3567 21.7303 31.2321 15.0857C36.423 11.2548 42.1618 8.23071 48.254 6.11573C50.4593 5.32824 52.704 4.69023 54.9423 4.05406C55.3327 3.9431 55.7229 3.83218 56.1126 3.72055C58.5156 3.03119 60.981 2.583 63.4722 2.38259C64.506 2.3001 65.5283 2.10353 66.5546 1.90617L66.5549 1.90611L66.5552 1.90604C67.5038 1.72364 68.4558 1.54057 69.4236 1.44626C76.7197 0.709501 84.0563 0.460623 91.3845 0.701242C95.7794 0.860122 100.142 1.33533 104.495 1.84301C107.976 2.24934 111.437 2.86123 114.886 3.61544C115.727 3.79945 116.571 3.97715 117.417 4.15501C119.429 4.57852 121.446 5.00297 123.435 5.5157C124.221 5.71862 124.963 6.06814 125.711 6.42033C126.402 6.74601 127.098 7.07396 127.839 7.29035C130.923 8.13764 133.94 9.21124 136.866 10.5025C137.155 10.6376 137.458 10.7477 137.756 10.5059ZM21.1798 181.618L21.1446 181.812C21.5071 182.003 21.8664 182.202 22.2257 182.4C23.014 182.837 23.8023 183.273 24.6254 183.628C24.9263 183.758 25.2268 183.889 25.5272 184.019C29.1257 185.583 32.7121 187.142 36.7858 187.278C37.3069 187.295 37.8358 187.443 38.3771 187.594C39.0379 187.778 39.7172 187.967 40.4234 187.931C41.296 187.886 42.143 188.03 42.998 188.175C43.8662 188.322 44.7427 188.471 45.6626 188.425C48.4775 188.285 51.3231 188.228 54.149 188.315C55.4047 188.354 56.6239 188.171 57.8408 187.989L57.841 187.989L57.8413 187.989C58.4404 187.899 59.0389 187.809 59.6409 187.746C61.0739 187.519 62.4933 187.212 63.8926 186.828C66.5253 186.269 69.1064 185.488 71.6084 184.494C74.1275 183.472 76.6171 182.341 79.0848 181.179C80.0464 180.726 81.0012 180.257 81.9561 179.787C83.4193 179.068 84.8827 178.349 86.3712 177.689C89.2673 176.429 92.0791 174.983 94.7889 173.36C95.4928 172.931 96.2446 172.668 96.997 172.405L96.9971 172.404C97.6803 172.165 98.3641 171.926 99.0131 171.562C100.165 170.842 101.399 170.262 102.687 169.834C105.041 169.159 107.442 168.66 109.869 168.343C117.994 167.342 126.084 167.81 134.138 169.047C134.521 169.106 134.905 169.161 135.29 169.216L135.29 169.216L135.29 169.216L135.29 169.216L135.29 169.216L135.29 169.216L135.29 169.216L135.291 169.216L135.291 169.216C137.399 169.516 139.517 169.818 141.474 170.795C142.177 171.195 142.954 171.449 143.757 171.542C145.282 171.627 146.784 171.95 148.209 172.499C149.867 173.116 151.562 173.609 153.257 174.102L153.257 174.102C154.64 174.504 156.023 174.907 157.389 175.377C162.31 177.072 167.213 178.81 172.02 180.791C173.361 181.343 174.731 181.806 176.101 182.27L176.101 182.27L176.101 182.27L176.101 182.27L176.101 182.27L176.101 182.27L176.101 182.27L176.101 182.27L176.101 182.27L176.101 182.27C177.722 182.819 179.344 183.367 180.918 184.063C182.247 184.65 183.721 184.911 185.193 185.172C185.781 185.276 186.369 185.38 186.946 185.505C196.515 187.572 206.032 187.732 215.36 184.34C215.904 184.143 216.435 184.16 216.958 184.177C217.572 184.198 218.175 184.218 218.776 183.889C223.789 181.145 228.838 178.47 234 176.009C237.55 174.315 240.604 171.899 243.658 169.483C245.269 168.208 246.881 166.933 248.566 165.764L248.65 165.706L248.726 165.653L248.727 165.652C249.559 165.072 249.603 165.041 250.889 165.067C250.99 165.068 251.096 164.963 251.198 164.861C251.236 164.824 251.273 164.786 251.31 164.755C252.196 164.004 253.103 163.277 254.01 162.55C255.865 161.064 257.72 159.578 259.391 157.88C259.646 157.621 259.905 157.365 260.164 157.109C261.487 155.799 262.815 154.484 263.643 152.777C267.09 145.667 266.808 138.55 263.493 131.51C261.624 127.54 258.939 124.1 256.097 120.787C250.285 113.971 243.094 108.467 234.999 104.636C231.736 103.085 228.431 101.627 225.125 100.169C220.186 97.9906 215.246 95.8117 210.444 93.3206C202.59 89.3218 195.618 83.789 189.938 77.0482C183.07 68.8526 177.347 59.8654 171.697 50.823C167.823 44.6239 163.734 38.574 158.799 33.155C151.856 25.5333 143.436 20.1417 133.8 16.5401C127.987 14.3552 122.031 12.5727 115.973 11.2052C99.3633 7.48582 82.5716 6.18811 65.5816 7.81834C57.8333 8.56201 50.2865 10.0818 43.1646 13.3582C38.363 15.5691 33.759 18.0895 29.8375 21.7056C27.5368 23.8276 25.5928 26.2024 24.6763 29.2626C23.5466 33.0113 23.1014 36.9324 23.3623 40.8377C23.8302 47.9281 25.7643 54.6988 27.699 61.4715C27.9344 62.2953 28.1697 63.1192 28.4024 63.9437C30.5067 71.4004 32.4859 78.8524 31.9533 86.7699C31.6868 91.2929 30.7734 95.7549 29.241 100.02C25.3949 110.514 20.0824 120.312 14.7721 130.105L14.7717 130.106L14.1446 131.263C13.4267 132.587 12.6761 133.895 11.9254 135.202L11.9252 135.203C10.0108 138.537 8.09642 141.872 6.72569 145.491C5.44671 148.869 4.54062 152.319 4.64833 155.969C4.9264 162.409 7.4455 168.546 11.7695 173.319C11.9046 173.439 12.0155 173.585 12.0964 173.747C12.7444 175.508 14.1909 176.453 15.6402 177.4L15.6409 177.4C15.7846 177.494 15.9284 177.588 16.0715 177.683C16.1713 177.749 16.2819 177.814 16.3941 177.88C16.7445 178.085 17.1109 178.299 17.2142 178.596C17.4846 179.37 18.1149 179.66 18.757 179.956C19.2776 180.196 19.8061 180.439 20.1568 180.947C20.3475 181.223 20.8205 181.397 21.3342 181.586C21.7489 181.738 22.1901 181.9 22.5308 182.134L21.1798 181.618ZM212.097 92.6897C207.605 90.4632 203.397 87.7048 199.563 84.4738C204.145 87.7844 209.013 90.6787 214.11 93.1222C218.419 95.2441 222.817 97.1675 227.215 99.091C229.357 100.028 231.499 100.965 233.631 101.924C235.731 102.825 237.749 103.909 239.66 105.162C238.945 105.323 238.489 104.969 238.047 104.625C237.831 104.457 237.618 104.291 237.379 104.189C235.843 103.532 234.322 102.841 232.801 102.149C231.365 101.496 229.929 100.843 228.482 100.22C222.96 97.8405 217.466 95.3996 212.097 92.6897ZM22.4193 187.339C17.6133 184.484 13.2319 180.969 9.40321 176.895C12.7938 181.418 17.2706 185.01 22.4193 187.339ZM134.524 175.914C128.219 174.583 121.749 174.203 115.329 174.785C121.749 174.806 128.141 175.268 134.524 175.914ZM204.652 192.659C210.398 192.334 216.025 191.492 221.165 188.661C215.831 190.621 210.291 191.962 204.652 192.659ZM153.411 25.8242L153.411 25.8241C149.071 22.6178 144.732 19.4115 139.729 17.246C145.399 19.3411 150.555 22.6274 154.849 26.8842C154.373 26.5349 153.899 26.1843 153.424 25.8337L153.411 25.8242ZM29.6333 190.761C29.5876 190.58 29.5605 190.449 29.5414 190.356C29.514 190.223 29.5027 190.168 29.476 190.159C27.4843 189.549 25.5632 188.728 23.745 187.712C23.6733 187.654 23.5811 187.629 23.49 187.641C23.3989 187.654 23.317 187.704 23.2635 187.778C23.0896 188.04 23.2755 188.219 23.4825 188.303C25.0259 188.928 26.5731 189.543 28.2199 190.198L28.2222 190.199L28.225 190.2C28.6859 190.384 29.1546 190.57 29.6333 190.761ZM117.433 168.64C114.975 168.406 112.496 168.554 110.083 169.078L117.433 168.64ZM223.596 93.899C221.599 92.4931 220.468 92.2088 219.619 93.0592C220.626 92.3989 221.265 92.8331 221.934 93.2877C222.421 93.6185 222.923 93.9601 223.596 93.899ZM228.142 94.8394L228.242 94.6985L233.079 96.9538L233.007 97.1078L228.142 94.8394Z" fill="#9EAD8D"/>
</svg>
